<svg xmlns="http://www.w3.org/2000/svg" xmlns:xlink="http://www.w3.org/1999/xlink" width="53.588" height="53.589" viewBox="0 0 53.588 53.589">
  <defs>
    <style>
      .cls-1, .cls-2 {
        fill: #6d6d6d;
      }

      .cls-1 {
        opacity: 0.152;
      }

      .cls-2 {
        stroke: rgba(109,109,109,0);
      }

      .cls-3 {
        filter: url(#Ellipse_10);
      }
    </style>
    <filter id="Ellipse_10" x="0" y="0" width="53.588" height="53.589" filterUnits="userSpaceOnUse">
      <feOffset dy="3" input="SourceAlpha"/>
      <feGaussianBlur stdDeviation="3" result="blur"/>
      <feFlood flood-opacity="0.161"/>
      <feComposite operator="in" in2="blur"/>
      <feComposite in="SourceGraphic"/>
    </filter>
  </defs>
  <g id="location" transform="translate(9 6)">
    <g class="cls-3" transform="matrix(1, 0, 0, 1, -9, -6)">
      <circle id="Ellipse_10-2" data-name="Ellipse 10" class="cls-1" cx="17.794" cy="17.794" r="17.794" transform="translate(9 6)"/>
    </g>
    <path id="map-marker-alt" class="cls-2" d="M5.446,15.86C.853,9.2,0,8.518,0,6.07a6.07,6.07,0,1,1,12.14,0c0,2.447-.853,3.131-5.446,9.79A.759.759,0,0,1,5.446,15.86ZM6.07,8.6A2.529,2.529,0,1,0,3.541,6.07,2.529,2.529,0,0,0,6.07,8.6Z" transform="translate(11.38 9.971)"/>
  </g>
</svg>
